<svg width="9" height="20" viewBox="0 0 9 20" fill="none" xmlns="http://www.w3.org/2000/svg">
<path d="M7.74219 6.25C7.74219 6.28906 7.73242 6.33464 7.71289 6.38672C7.69336 6.4388 7.67057 6.47786 7.64453 6.50391L3.25 10.8984L7.64453 15.2734C7.67057 15.3125 7.69336 15.3548 7.71289 15.4004C7.73242 15.446 7.74219 15.4883 7.74219 15.5273C7.74219 15.5794 7.73242 15.6283 7.71289 15.6738C7.69336 15.7194 7.67057 15.7617 7.64453 15.8008L7.07812 16.3477C7.03906 16.3867 6.99674 16.416 6.95117 16.4355C6.9056 16.4551 6.86328 16.4648 6.82422 16.4648C6.77214 16.4648 6.72331 16.4551 6.67773 16.4355C6.63216 16.416 6.59635 16.3867 6.57031 16.3477L1.35547 11.1523C1.32943 11.1133 1.30664 11.071 1.28711 11.0254C1.26758 10.9798 1.25781 10.9375 1.25781 10.8984C1.25781 10.8464 1.26758 10.7975 1.28711 10.752C1.30664 10.7064 1.32943 10.6706 1.35547 10.6445L6.57031 5.42969C6.59635 5.40365 6.63216 5.38086 6.67773 5.36133C6.72331 5.3418 6.77214 5.33203 6.82422 5.33203C6.86328 5.33203 6.9056 5.3418 6.95117 5.36133C6.99674 5.38086 7.03906 5.40365 7.07812 5.42969L7.64453 5.99609C7.67057 6.02214 7.69336 6.05794 7.71289 6.10352C7.73242 6.14909 7.74219 6.19792 7.74219 6.25Z" fill="white"/>
</svg>
