<svg width="7" height="20" viewBox="0 0 7 20" fill="none" xmlns="http://www.w3.org/2000/svg">
<path d="M6.75195 10.8984C6.75195 10.9375 6.74219 10.9798 6.72266 11.0254C6.70312 11.071 6.67383 11.1133 6.63477 11.1523L1.43945 16.3477C1.40039 16.3867 1.35807 16.416 1.3125 16.4355C1.26693 16.4551 1.22461 16.4648 1.18555 16.4648C1.13346 16.4648 1.08464 16.4551 1.03906 16.4355C0.99349 16.416 0.957682 16.3867 0.931641 16.3477L0.365234 15.8008C0.339193 15.7617 0.313151 15.7194 0.287109 15.6738C0.261068 15.6283 0.248047 15.5794 0.248047 15.5273C0.248047 15.4883 0.261068 15.446 0.287109 15.4004C0.313151 15.3548 0.339193 15.3125 0.365234 15.2734L4.75977 10.8984L0.365234 6.50391C0.339193 6.47786 0.313151 6.4388 0.287109 6.38672C0.261068 6.33464 0.248047 6.28906 0.248047 6.25C0.248047 6.21094 0.261068 6.16536 0.287109 6.11328C0.313151 6.0612 0.339193 6.02214 0.365234 5.99609L0.931641 5.42969C0.957682 5.40365 0.99349 5.38086 1.03906 5.36133C1.08464 5.3418 1.13346 5.33203 1.18555 5.33203C1.22461 5.33203 1.26693 5.3418 1.3125 5.36133C1.35807 5.38086 1.40039 5.40365 1.43945 5.42969L6.63477 10.6445C6.67383 10.6706 6.70312 10.7064 6.72266 10.752C6.74219 10.7975 6.75195 10.8464 6.75195 10.8984Z" fill="white"/>
</svg>
